<svg width="21" height="20" viewBox="0 0 21 20" fill="none" xmlns="http://www.w3.org/2000/svg">
<path d="M9.90229 2.8778C10.0944 2.48869 10.1904 2.29413 10.3208 2.23197C10.4342 2.17789 10.566 2.17789 10.6794 2.23197C10.8098 2.29413 10.9058 2.48869 11.0979 2.8778L12.9201 6.56944C12.9768 6.68432 13.0052 6.74176 13.0466 6.78635C13.0833 6.82584 13.1273 6.85783 13.1762 6.88056C13.2314 6.90623 13.2948 6.91549 13.4215 6.93402L17.4976 7.5298C17.9268 7.59253 18.1414 7.6239 18.2407 7.72874C18.3271 7.81995 18.3678 7.94529 18.3513 8.06985C18.3324 8.21302 18.1771 8.36436 17.8663 8.66702L14.918 11.5387C14.826 11.6282 14.7801 11.673 14.7504 11.7263C14.7242 11.7734 14.7073 11.8252 14.7008 11.8788C14.6935 11.9393 14.7043 12.0025 14.726 12.129L15.4217 16.1851C15.4951 16.6129 15.5318 16.8269 15.4628 16.9538C15.4028 17.0642 15.2962 17.1417 15.1726 17.1646C15.0306 17.1909 14.8385 17.0899 14.4543 16.8879L10.8104 14.9716C10.6969 14.9119 10.6401 14.882 10.5803 14.8703C10.5273 14.8599 10.4729 14.8599 10.4199 14.8703C10.3601 14.882 10.3033 14.9119 10.1898 14.9716L6.54585 16.8879C6.16168 17.0899 5.96959 17.1909 5.82756 17.1646C5.70398 17.1417 5.59735 17.0642 5.53736 16.9538C5.46842 16.8269 5.5051 16.6129 5.57848 16.1851L6.27415 12.129C6.29584 12.0025 6.30669 11.9393 6.29935 11.8788C6.29285 11.8252 6.27601 11.7734 6.24975 11.7263C6.2201 11.673 6.17415 11.6282 6.08224 11.5387L3.13388 8.66702C2.82313 8.36436 2.66776 8.21302 2.64885 8.06985C2.6324 7.94529 2.67304 7.81995 2.75946 7.72874C2.85878 7.6239 3.07339 7.59253 3.50262 7.5298L7.57867 6.93402C7.70543 6.91549 7.76882 6.90623 7.82401 6.88056C7.87288 6.85783 7.91688 6.82584 7.95357 6.78635C7.995 6.74176 8.02336 6.68432 8.08006 6.56944L9.90229 2.8778Z" fill="#FDB022" stroke="#FDB022" strokeWidth="2" strokeLinecap="round" strokeLinejoin="round"/>
</svg>
